#N canvas 19 23 1627 939 10;
#X msg 383 638 stop;
#X msg 693 589 stop;
#X obj 901 748 freeverb~;
#X msg 999 334 roomsize \$1;
#X msg 999 379 damping \$1;
#X msg 1001 431 width \$1;
#X msg 1001 475 wet \$1;
#X msg 1001 519 dry \$1;
#X msg 1023 561 print;
#X msg 1027 603 bypass \$1;
#X obj 1027 585 tgl 15 0 empty empty empty 0 -6 0 8 -262144 -1 -1 0
1;
#X obj 1013 496 hsl 60 18 0 1 0 1 empty empty dry 2 9 1 12 -225271
-1 -1 600 0;
#X obj 1013 452 hsl 60 18 0 1 0 1 empty empty wet 2 9 1 12 -225271
-1 -1 3000 0;
#X obj 1011 400 hsl 60 18 0 1 0 1 empty empty width 2 9 1 12 -262131
-1 -1 1000 0;
#X obj 1011 356 hsl 60 18 0 2 0 1 empty empty damping 2 9 1 12 -261689
-1 -1 400 0;
#X obj 1016 310 hsl 60 18 0.11 1.1 0 1 empty empty roomsize 2 9 1 12
-261689 -1 -1 400 0;
#X floatatom 981 315 3 0 0 0 - - -;
#X floatatom 981 360 3 0 0 0 - - -;
#X floatatom 981 405 3 0 0 0 - - -;
#X floatatom 983 456 3 0 0 0 - - -;
#X floatatom 983 500 3 0 0 0 - - -;
#X obj 1049 729 writesf~ 2;
#X msg 1316 709 start;
#X msg 1171 659 stop;
#X msg 1130 659 print;
#X text 1160 704 1;
#X text 1299 705 2;
#X obj 1097 854 delread~ delayRight 1500;
#X obj 1099 878 delread~ delayLeft 1000;
#X text 1169 679 CAMBIAR NOMBRE FICHERO CADA NUEVA REC.;
#X obj 906 881 dac~ 1 2;
#X obj 378 243 threshold~ 1 3000 0.1 1000;
#X obj 378 266 bng 15 250 50 0 empty empty empty 17 7 0 10 -262144
-1 -1;
#X floatatom 378 333 5 0 0 0 - - -;
#X obj 378 219 *~ 5;
#X obj 738 281 threshold~ 1 3000 0.1 1000;
#X obj 738 304 bng 15 250 50 0 empty empty empty 17 7 0 10 -262144
-1 -1;
#X floatatom 738 371 5 0 0 0 - - -;
#X obj 738 252 *~ 5.5;
#X msg 376 421 open Brazil.wav \, 1;
#X obj 691 124 adc~;
#N canvas 0 22 796 453 (subpatch) 0;
#X array array1 100 float 3;
#A 0 0 0 0 0 0 0 0 0 0 0 0 0 0 0 0 0 0 0 0 0 0 0 0 0 0 0 0 0 0 0 0
0 0 0 0 0 0 0 0 0 0 0 0 0 0 0 0 0 0 0 0 0 0 0 0 0 0 0 0 0 0 0 0 0 0
0 0 0 0 0 0 0 0 0 0 0 0 0 0 0 0 0 0 0 0 0 0 0 0 0 0 0 0 0 0 0 0 0 0
0;
#X coords 0 1 99 -1 200 140 1;
#X restore 957 140 graph;
#X obj 849 229 tabwrite~ array1;
#X obj 855 185 bng 15 250 50 0 empty empty empty 17 7 0 10 -262144
-1 -1;
#X text 915 207 msec.;
#X obj 855 206 metro 160;
#X msg 1178 707 open SELVA.wav;
#X msg 393 448 open Brazil1.wav \, 1;
#X obj 1107 815 delwrite~ delayLeft 3000;
#X obj 1105 790 delwrite~ delayRight 5000;
#X msg 407 473 open Brazil2.wav \, 1;
#X msg 423 503 open Brazil3.wav \, 1;
#X msg 718 436 open Brazilhowler.wav \, 1;
#X msg 735 463 open Brazilhowler1.wav \, 1;
#X msg 747 498 open Duskytiti.wav \, 1;
#X msg 764 525 open Binturong.wav \, 1;
#X msg 443 541 open cicadidae.wav \, 1;
#X text 443 335 Aves e insectos 305000 msec;
#X msg 119 624 stop;
#X obj 203 243 threshold~ 1 3000 0.1 1000;
#X obj 203 266 bng 15 250 50 0 empty empty empty 17 7 0 10 -262144
-1 -1;
#X floatatom 203 333 5 0 0 0 - - -;
#X msg 188 392 open water.wav \, 1;
#X obj 198 780 dac~ 1 2;
#X msg 199 417 open agua.wav \, 1;
#X msg 205 445 open trensobrepuente.wav \, 1;
#X text 775 371 Primates y mamiferos 305000 msec;
#X text 251 332 entorno 305000 msec;
#X msg 774 553 open bats.wav \, 1;
#X obj 738 394 sel 0 1 2 3 4;
#X obj 734 627 readsf~ 5;
#X obj 738 349 random 5;
#X obj 203 214 *~ 1.5;
#X obj 791 188 *~ 5.5;
#X obj 170 706 *~ 2.5;
#X obj 377 362 sel 0 1 2 3 4 5 6;
#X obj 379 310 random 7;
#X obj 431 662 readsf~ 7;
#X msg 455 571 open silveredantbird.wav \, 1;
#X msg 475 609 open greatblackhawk.wav \, 1;
#X obj 162 650 readsf~ 10;
#X obj 203 311 random 10;
#X obj 203 356 sel 0 1 2 3 4 5 6 7 8 9;
#X msg 214 471 open ambience.wav \, 1;
#X msg 214 495 open ambience2.wav \, 1;
#X msg 229 516 open ambience3.wav \, 1;
#X msg 233 540 open ambience4.wav \, 1;
#X msg 235 564 open ambience5.wav \, 1;
#X msg 239 588 open ambience6.wav \, 1;
#X msg 240 612 open ambience7.wav \, 1;
#X obj 204 289 metro 305000;
#X obj 379 289 metro 610000;
#X obj 739 327 metro 610000;
#X obj 791 153 dsp;
#X obj 791 123 tgl 15 0 empty empty empty 17 7 0 10 -262144 -1 -1 1
1;
#X obj 791 89 loadbang;
#X text 1185 561 [D.E.A.R]: Dispositivo Experiencial \, Autónomo y
Reactivo \, Miguel Oliveros. II Festival Aloha Invierno \, La Casa
Encendida \, Madrid 2015/16;
#X connect 0 0 77 0;
#X connect 1 0 70 0;
#X connect 2 0 21 0;
#X connect 2 0 30 0;
#X connect 2 0 48 0;
#X connect 2 1 21 1;
#X connect 2 1 30 1;
#X connect 2 1 49 0;
#X connect 3 0 2 0;
#X connect 4 0 2 0;
#X connect 5 0 2 0;
#X connect 6 0 2 0;
#X connect 7 0 2 0;
#X connect 8 0 2 0;
#X connect 9 0 2 0;
#X connect 10 0 9 0;
#X connect 11 0 7 0;
#X connect 11 0 20 0;
#X connect 12 0 6 0;
#X connect 12 0 19 0;
#X connect 13 0 5 0;
#X connect 13 0 18 0;
#X connect 14 0 4 0;
#X connect 14 0 17 0;
#X connect 15 0 3 0;
#X connect 15 0 16 0;
#X connect 22 0 21 0;
#X connect 23 0 21 0;
#X connect 24 0 21 0;
#X connect 27 0 21 1;
#X connect 27 0 30 1;
#X connect 28 0 21 0;
#X connect 28 0 30 0;
#X connect 31 0 32 0;
#X connect 32 0 91 0;
#X connect 33 0 75 0;
#X connect 34 0 31 0;
#X connect 35 0 36 0;
#X connect 36 0 92 0;
#X connect 37 0 69 0;
#X connect 38 0 35 0;
#X connect 39 0 77 0;
#X connect 40 0 38 0;
#X connect 40 0 34 0;
#X connect 40 0 72 0;
#X connect 40 0 73 0;
#X connect 43 0 45 0;
#X connect 45 0 42 0;
#X connect 46 0 21 0;
#X connect 47 0 77 0;
#X connect 50 0 77 0;
#X connect 51 0 77 0;
#X connect 52 0 70 0;
#X connect 53 0 70 0;
#X connect 54 0 70 0;
#X connect 55 0 70 0;
#X connect 56 0 77 0;
#X connect 58 0 80 0;
#X connect 59 0 60 0;
#X connect 60 0 90 0;
#X connect 61 0 82 0;
#X connect 62 0 80 0;
#X connect 64 0 80 0;
#X connect 65 0 80 0;
#X connect 68 0 70 0;
#X connect 69 0 52 0;
#X connect 69 1 53 0;
#X connect 69 2 54 0;
#X connect 69 3 55 0;
#X connect 69 4 68 0;
#X connect 70 0 2 0;
#X connect 70 0 2 1;
#X connect 70 1 2 0;
#X connect 70 1 2 1;
#X connect 70 2 2 0;
#X connect 70 2 2 1;
#X connect 70 3 2 0;
#X connect 70 3 2 1;
#X connect 70 4 2 1;
#X connect 70 4 2 0;
#X connect 70 5 2 1;
#X connect 71 0 37 0;
#X connect 72 0 59 0;
#X connect 73 0 42 0;
#X connect 74 0 63 0;
#X connect 74 0 63 1;
#X connect 75 0 39 0;
#X connect 75 1 47 0;
#X connect 75 2 50 0;
#X connect 75 3 51 0;
#X connect 75 4 56 0;
#X connect 75 5 78 0;
#X connect 75 6 79 0;
#X connect 76 0 33 0;
#X connect 77 0 2 0;
#X connect 77 0 2 1;
#X connect 77 1 2 1;
#X connect 77 1 2 0;
#X connect 77 2 2 1;
#X connect 77 2 2 0;
#X connect 77 3 2 1;
#X connect 77 3 2 0;
#X connect 77 4 2 1;
#X connect 77 4 2 0;
#X connect 77 5 2 1;
#X connect 77 5 2 0;
#X connect 77 6 2 0;
#X connect 77 6 2 1;
#X connect 77 7 2 1;
#X connect 78 0 77 0;
#X connect 79 0 77 0;
#X connect 80 0 74 0;
#X connect 80 1 74 0;
#X connect 80 2 74 0;
#X connect 80 3 74 0;
#X connect 81 0 61 0;
#X connect 82 0 62 0;
#X connect 82 1 64 0;
#X connect 82 2 65 0;
#X connect 82 3 83 0;
#X connect 82 4 84 0;
#X connect 82 5 85 0;
#X connect 82 6 86 0;
#X connect 82 7 87 0;
#X connect 82 8 88 0;
#X connect 82 9 89 0;
#X connect 83 0 80 0;
#X connect 84 0 80 0;
#X connect 85 0 80 0;
#X connect 86 0 80 0;
#X connect 87 0 80 0;
#X connect 88 0 80 0;
#X connect 89 0 80 0;
#X connect 90 0 81 0;
#X connect 91 0 76 0;
#X connect 92 0 71 0;
#X connect 94 0 93 0;
#X connect 94 0 43 0;
#X connect 95 0 94 0;
