#N canvas 866 109 882 703 12;
#X obj 347 377 dac~;
#X obj 340 165 hsl 128 15 0 127 0 0 empty empty empty -2 -8 0 10 #fcfcfc
#000000 #000000 0 1;
#X obj 337 209 osc~ 840;
#X obj 333 13 bng 15 250 50 0 empty empty empty 17 7 0 10 #fcfcfc #000000
#000000;
#X obj 337 106 random 127;
#X floatatom 350 145 5 0 0 0 - - - 0;
#X obj 582 106 metro 100;
#X obj 331 66 metro 2000;
#X connect 1 0 2 0;
#X connect 2 0 0 0;
#X connect 2 0 0 1;
#X connect 3 0 7 0;
#X connect 4 0 5 0;
#X connect 4 0 1 0;
#X connect 7 0 4 0;
